<svg width="13" height="13" viewBox="0 0 13 13" fill="none" xmlns="http://www.w3.org/2000/svg">
<path fill-rule="evenodd" clip-rule="evenodd" d="M6.25 0C2.8 0 0 2.8 0 6.25C0 9.7 2.8 12.5 6.25 12.5C9.7 12.5 12.5 9.7 12.5 6.25C12.5 2.8 9.7 0 6.25 0ZM6.25 11.25C3.4875 11.25 1.25 9.0125 1.25 6.25C1.25 5.09375 1.64375 4.03125 2.30625 3.1875L9.3125 10.1937C8.46875 10.8562 7.40625 11.25 6.25 11.25ZM10.1937 9.3125L3.1875 2.30625C4.03125 1.64375 5.09375 1.25 6.25 1.25C9.0125 1.25 11.25 3.4875 11.25 6.25C11.25 7.40625 10.8562 8.46875 10.1937 9.3125Z" fill="#D54309"/>
</svg>
